<?xml version="1.0" encoding="utf-8"?>
<!-- Generator: Adobe Illustrator 23.0.1, SVG Export Plug-In . SVG Version: 6.00 Build 0)  -->
<svg version="1.1" xmlns="http://www.w3.org/2000/svg" xmlns:xlink="http://www.w3.org/1999/xlink" x="0px" y="0px"
	 viewBox="0 0 1600 800" style="enable-background:new 0 0 1600 800;" xml:space="preserve">
<style type="text/css">
	.st0{fill:#030403;}
	.st1{fill:#FFFFFF;}
	.st2{opacity:0.81;fill:#374DA1;}
	.st3{opacity:0.92;fill:#374DA1;}
</style>
<g id="Layer_1">
	<g>
		<path class="st0" d="M66.33,552.7c0,0,87.95,31.5,45.81-56l36.65-19.25c0,0,42.14,78.75,75.13-10.5l42.14,12.25
			c0,0-21.99,73.77,51.31,33.38l29.32,31.37c0,0-53.14,49,21.99,56v36.75c0,0-100.78,8.75-10.99,59.5l-31.15,40.25
			c0,0-71.46-50.75-51.31,33.25l-43.98,12.25c0,0-42.14-120.75-60.47,0l-51.31-21c0,0,47.64-84-31.15-38.5l-21.99-35
			c0,0,73.29-42.35-10.99-37.8v-31.33c0,0,73.29-13.13,0-35.88L66.33,552.7z"/>
		<circle class="st1" cx="212" cy="624.45" r="50.83"/>
	</g>
	<g>
		<path class="st0" d="M1218.83,96.75c0,0,87.95,31.5,45.81-56l36.65-19.25c0,0,42.14,78.75,75.13-10.5l42.14,12.25
			c0,0-21.99,73.77,51.31,33.38L1499.18,88c0,0-53.14,49,21.99,56v36.75c0,0-100.78,8.75-10.99,59.5l-31.15,40.25
			c0,0-71.46-50.75-51.31,33.25L1383.74,326c0,0-42.14-120.75-60.47,0l-51.31-21c0,0,47.64-84-31.15-38.5l-21.99-35
			c0,0,73.29-42.35-10.99-37.8v-31.32c0,0,73.29-13.13,0-35.88L1218.83,96.75z"/>
		<circle class="st1" cx="1364.5" cy="168.5" r="50.83"/>
	</g>
	<g>
		<path class="st0" d="M709.27,324c0,0,45.25,16.21,23.57-28.81l18.85-9.9c0,0,21.68,40.52,38.65-5.4l21.68,6.3
			c0,0-11.31,37.95,26.4,17.18l15.08,16.14c0,0-27.34,25.21,11.31,28.81v18.91c0,0-51.85,4.5-5.66,30.61l-16.03,20.71
			c0,0-36.77-26.11-26.4,17.11l-22.63,6.3c0,0-21.68-62.13-31.11,0l-26.4-10.8c0,0,24.51-43.22-16.03-19.81l-11.31-18.01
			c0,0,37.71-21.79-5.66-19.45v-16.12c0,0,37.71-6.75,0-18.46L709.27,324z"/>
		<circle class="st1" cx="784.22" cy="360.92" r="26.15"/>
	</g>
</g>
<g id="Layer_2">
	<rect y="-3" class="st2" width="1600" height="806"/>
</g>
<g id="Layer_3">
	<rect y="-3" class="st3" width="1603" height="806"/>
</g>
</svg>
